<mxfile host="app.diagrams.net" agent="Mozilla/5.0 (Windows NT 10.0; Win64; x64) AppleWebKit/537.36 (KHTML, like Gecko) Chrome/132.0.0.0 YaBrowser/25.2.0.0 Safari/537.36" version="26.0.16">
  <diagram name="Страница — 1" id="EXcH2AO3kCVnrlgoK3_3">
    <mxGraphModel dx="2688" dy="1614" grid="0" gridSize="10" guides="1" tooltips="1" connect="1" arrows="1" fold="1" page="0" pageScale="1" pageWidth="827" pageHeight="1169" math="0" shadow="0">
      <root>
        <mxCell id="0" />
        <mxCell id="1" parent="0" />
        <mxCell id="E9D1vIoWVID96YeOAwqb-294" value="&lt;span style=&quot;font-size: 31px;&quot;&gt;Прецедент &quot;Регистрация нового объекта&quot;&lt;/span&gt;" style="shape=umlFrame;whiteSpace=wrap;html=1;pointerEvents=0;fontFamily=Helvetica;fontSize=11;fontColor=default;labelBackgroundColor=default;width=383;height=178;" vertex="1" parent="1">
          <mxGeometry x="1839" y="-570" width="1818" height="1525" as="geometry" />
        </mxCell>
        <mxCell id="E9D1vIoWVID96YeOAwqb-1" value="Пользователь" style="shape=umlActor;verticalLabelPosition=bottom;verticalAlign=top;html=1;outlineConnect=0;" vertex="1" parent="1">
          <mxGeometry x="-305" y="382" width="30" height="60" as="geometry" />
        </mxCell>
        <mxCell id="E9D1vIoWVID96YeOAwqb-4" value="Проверка юридической чистоты объекта" style="ellipse;whiteSpace=wrap;html=1;" vertex="1" parent="1">
          <mxGeometry x="-187.5" y="289" width="150" height="70" as="geometry" />
        </mxCell>
        <mxCell id="E9D1vIoWVID96YeOAwqb-5" value="Создать обращение в тех. поддержку" style="ellipse;whiteSpace=wrap;html=1;" vertex="1" parent="1">
          <mxGeometry x="-187.5" y="109" width="140" height="70" as="geometry" />
        </mxCell>
        <mxCell id="E9D1vIoWVID96YeOAwqb-6" value="Запрос на консультацию" style="ellipse;whiteSpace=wrap;html=1;" vertex="1" parent="1">
          <mxGeometry x="-197.5" y="199" width="150" height="70" as="geometry" />
        </mxCell>
        <mxCell id="E9D1vIoWVID96YeOAwqb-7" value="Поиск недвижимости" style="ellipse;whiteSpace=wrap;html=1;" vertex="1" parent="1">
          <mxGeometry x="-75.5" y="540" width="140" height="70" as="geometry" />
        </mxCell>
        <mxCell id="E9D1vIoWVID96YeOAwqb-9" value="Регистрация&amp;nbsp;" style="ellipse;whiteSpace=wrap;html=1;" vertex="1" parent="1">
          <mxGeometry x="-620" y="339" width="140" height="70" as="geometry" />
        </mxCell>
        <mxCell id="E9D1vIoWVID96YeOAwqb-10" value="Вход в систему" style="ellipse;whiteSpace=wrap;html=1;" vertex="1" parent="1">
          <mxGeometry x="-498" y="201" width="140" height="70" as="geometry" />
        </mxCell>
        <mxCell id="E9D1vIoWVID96YeOAwqb-11" value="Просмотр информации о недвижимости" style="ellipse;whiteSpace=wrap;html=1;" vertex="1" parent="1">
          <mxGeometry x="120.5" y="500" width="160" height="80" as="geometry" />
        </mxCell>
        <mxCell id="E9D1vIoWVID96YeOAwqb-13" value="Фильтрация и сортировка результатов поиска" style="ellipse;whiteSpace=wrap;html=1;" vertex="1" parent="1">
          <mxGeometry x="-49.5" y="420" width="140" height="70" as="geometry" />
        </mxCell>
        <mxCell id="E9D1vIoWVID96YeOAwqb-19" value="" style="html=1;endArrow=none;verticalAlign=bottom;rounded=0;exitX=0;exitY=0.5;exitDx=0;exitDy=0;" edge="1" parent="1" source="E9D1vIoWVID96YeOAwqb-7">
          <mxGeometry width="160" relative="1" as="geometry">
            <mxPoint x="15" y="542" as="sourcePoint" />
            <mxPoint x="-275" y="412" as="targetPoint" />
          </mxGeometry>
        </mxCell>
        <mxCell id="E9D1vIoWVID96YeOAwqb-20" value="&amp;lt;&amp;lt;extend&amp;gt;&amp;gt;" style="edgeStyle=none;html=1;startArrow=open;endArrow=none;startSize=12;verticalAlign=bottom;dashed=1;labelBackgroundColor=none;rounded=0;entryX=0.5;entryY=1;entryDx=0;entryDy=0;exitX=0.5;exitY=0;exitDx=0;exitDy=0;" edge="1" parent="1" source="E9D1vIoWVID96YeOAwqb-7" target="E9D1vIoWVID96YeOAwqb-13">
          <mxGeometry x="-0.7632" y="31" width="160" relative="1" as="geometry">
            <mxPoint x="-49.5" y="570" as="sourcePoint" />
            <mxPoint x="80.5" y="540" as="targetPoint" />
            <mxPoint as="offset" />
          </mxGeometry>
        </mxCell>
        <mxCell id="E9D1vIoWVID96YeOAwqb-21" value="&amp;lt;&amp;lt;extend&amp;gt;&amp;gt;" style="edgeStyle=none;html=1;startArrow=open;endArrow=none;startSize=12;verticalAlign=bottom;dashed=1;labelBackgroundColor=none;rounded=0;entryX=0;entryY=0.5;entryDx=0;entryDy=0;exitX=1;exitY=0.5;exitDx=0;exitDy=0;" edge="1" parent="1" source="E9D1vIoWVID96YeOAwqb-7" target="E9D1vIoWVID96YeOAwqb-11">
          <mxGeometry x="-0.1878" y="13" width="160" relative="1" as="geometry">
            <mxPoint x="-49.5" y="570" as="sourcePoint" />
            <mxPoint x="110.5" y="570" as="targetPoint" />
            <mxPoint as="offset" />
          </mxGeometry>
        </mxCell>
        <mxCell id="E9D1vIoWVID96YeOAwqb-23" value="&amp;lt;&amp;lt;include&amp;gt;&amp;gt;" style="edgeStyle=none;html=1;endArrow=none;verticalAlign=bottom;dashed=1;labelBackgroundColor=none;rounded=0;exitX=0.5;exitY=0;exitDx=0;exitDy=0;entryX=0;entryY=1;entryDx=0;entryDy=0;startArrow=open;startFill=0;" edge="1" parent="1" source="E9D1vIoWVID96YeOAwqb-9" target="E9D1vIoWVID96YeOAwqb-10">
          <mxGeometry x="-0.2935" y="21" width="160" relative="1" as="geometry">
            <mxPoint x="-113" y="451" as="sourcePoint" />
            <mxPoint x="47" y="451" as="targetPoint" />
            <mxPoint as="offset" />
          </mxGeometry>
        </mxCell>
        <mxCell id="E9D1vIoWVID96YeOAwqb-24" value="" style="html=1;endArrow=none;verticalAlign=bottom;rounded=0;entryX=0.5;entryY=1;entryDx=0;entryDy=0;" edge="1" parent="1" target="E9D1vIoWVID96YeOAwqb-10">
          <mxGeometry width="160" relative="1" as="geometry">
            <mxPoint x="-305" y="409" as="sourcePoint" />
            <mxPoint x="-203" y="331" as="targetPoint" />
          </mxGeometry>
        </mxCell>
        <mxCell id="E9D1vIoWVID96YeOAwqb-25" value="" style="html=1;endArrow=none;verticalAlign=bottom;rounded=0;entryX=1;entryY=0.5;entryDx=0;entryDy=0;" edge="1" parent="1" source="E9D1vIoWVID96YeOAwqb-1" target="E9D1vIoWVID96YeOAwqb-9">
          <mxGeometry width="160" relative="1" as="geometry">
            <mxPoint x="-428" y="301" as="sourcePoint" />
            <mxPoint x="-523" y="261" as="targetPoint" />
            <Array as="points" />
          </mxGeometry>
        </mxCell>
        <mxCell id="E9D1vIoWVID96YeOAwqb-26" value="&amp;lt;&amp;lt;include&amp;gt;&amp;gt;" style="edgeStyle=none;html=1;endArrow=open;verticalAlign=bottom;dashed=1;labelBackgroundColor=none;rounded=0;exitX=0;exitY=0.5;exitDx=0;exitDy=0;entryX=1;entryY=0;entryDx=0;entryDy=0;" edge="1" parent="1" source="E9D1vIoWVID96YeOAwqb-5" target="E9D1vIoWVID96YeOAwqb-10">
          <mxGeometry x="0.0706" y="-10" width="160" relative="1" as="geometry">
            <mxPoint x="-385.5" y="165" as="sourcePoint" />
            <mxPoint x="-293" y="209" as="targetPoint" />
            <mxPoint as="offset" />
          </mxGeometry>
        </mxCell>
        <mxCell id="E9D1vIoWVID96YeOAwqb-27" value="&amp;lt;&amp;lt;include&amp;gt;&amp;gt;" style="edgeStyle=none;html=1;endArrow=open;verticalAlign=bottom;dashed=1;labelBackgroundColor=none;rounded=0;exitX=0;exitY=0.5;exitDx=0;exitDy=0;entryX=1;entryY=0.5;entryDx=0;entryDy=0;" edge="1" parent="1" source="E9D1vIoWVID96YeOAwqb-6" target="E9D1vIoWVID96YeOAwqb-10">
          <mxGeometry x="-0.0133" y="-5" width="160" relative="1" as="geometry">
            <mxPoint x="-177.5" y="154" as="sourcePoint" />
            <mxPoint x="-272.5" y="234" as="targetPoint" />
            <mxPoint as="offset" />
          </mxGeometry>
        </mxCell>
        <mxCell id="E9D1vIoWVID96YeOAwqb-28" value="&amp;lt;&amp;lt;include&amp;gt;&amp;gt;" style="edgeStyle=none;html=1;endArrow=open;verticalAlign=bottom;dashed=1;labelBackgroundColor=none;rounded=0;exitX=0;exitY=0.5;exitDx=0;exitDy=0;entryX=0.975;entryY=0.653;entryDx=0;entryDy=0;entryPerimeter=0;" edge="1" parent="1" source="E9D1vIoWVID96YeOAwqb-4" target="E9D1vIoWVID96YeOAwqb-10">
          <mxGeometry x="-0.1713" y="-15" width="160" relative="1" as="geometry">
            <mxPoint x="-187.5" y="244" as="sourcePoint" />
            <mxPoint x="-279.5" y="250" as="targetPoint" />
            <mxPoint as="offset" />
          </mxGeometry>
        </mxCell>
        <mxCell id="E9D1vIoWVID96YeOAwqb-29" value="" style="edgeStyle=orthogonalEdgeStyle;html=1;endArrow=none;verticalAlign=bottom;rounded=0;exitX=1;exitY=0.5;exitDx=0;exitDy=0;" edge="1" parent="1" source="E9D1vIoWVID96YeOAwqb-4" target="E9D1vIoWVID96YeOAwqb-1">
          <mxGeometry width="160" relative="1" as="geometry">
            <mxPoint x="-26" y="388" as="sourcePoint" />
            <mxPoint x="-225" y="412" as="targetPoint" />
            <Array as="points">
              <mxPoint x="5" y="324" />
              <mxPoint x="5" y="412" />
            </Array>
          </mxGeometry>
        </mxCell>
        <mxCell id="E9D1vIoWVID96YeOAwqb-30" value="" style="edgeStyle=orthogonalEdgeStyle;html=1;endArrow=none;verticalAlign=bottom;rounded=0;exitX=1;exitY=0.5;exitDx=0;exitDy=0;" edge="1" parent="1" source="E9D1vIoWVID96YeOAwqb-5">
          <mxGeometry width="160" relative="1" as="geometry">
            <mxPoint x="3" y="198" as="sourcePoint" />
            <mxPoint x="5" y="324" as="targetPoint" />
          </mxGeometry>
        </mxCell>
        <mxCell id="E9D1vIoWVID96YeOAwqb-32" value="" style="edgeStyle=none;html=1;endArrow=none;verticalAlign=bottom;rounded=0;exitX=1;exitY=0.5;exitDx=0;exitDy=0;" edge="1" parent="1" source="E9D1vIoWVID96YeOAwqb-6">
          <mxGeometry width="160" relative="1" as="geometry">
            <mxPoint x="-39.5" y="233.9" as="sourcePoint" />
            <mxPoint x="5" y="234" as="targetPoint" />
          </mxGeometry>
        </mxCell>
        <mxCell id="E9D1vIoWVID96YeOAwqb-33" value="Сотрудник технической&amp;nbsp;&lt;div&gt;поддержки&lt;/div&gt;" style="shape=umlActor;verticalLabelPosition=bottom;verticalAlign=top;html=1;outlineConnect=0;" vertex="1" parent="1">
          <mxGeometry x="525" y="260" width="30" height="60" as="geometry" />
        </mxCell>
        <mxCell id="E9D1vIoWVID96YeOAwqb-42" value="Работа с обращениями пользователей" style="ellipse;whiteSpace=wrap;html=1;" vertex="1" parent="1">
          <mxGeometry x="647" y="139" width="147" height="72" as="geometry" />
        </mxCell>
        <mxCell id="E9D1vIoWVID96YeOAwqb-43" value="Передача отчёта системному администратору" style="ellipse;whiteSpace=wrap;html=1;" vertex="1" parent="1">
          <mxGeometry x="921" y="260" width="140" height="70" as="geometry" />
        </mxCell>
        <mxCell id="E9D1vIoWVID96YeOAwqb-45" value="Формирование&amp;nbsp;&lt;div&gt;отчётов о сбоях&lt;/div&gt;" style="ellipse;whiteSpace=wrap;html=1;" vertex="1" parent="1">
          <mxGeometry x="928" y="395" width="140" height="70" as="geometry" />
        </mxCell>
        <mxCell id="E9D1vIoWVID96YeOAwqb-46" value="Диагностика и устранение технических неполадок" style="ellipse;whiteSpace=wrap;html=1;" vertex="1" parent="1">
          <mxGeometry x="650.5" y="227" width="140" height="70" as="geometry" />
        </mxCell>
        <mxCell id="E9D1vIoWVID96YeOAwqb-48" value="Мониторинг работы системы" style="ellipse;whiteSpace=wrap;html=1;" vertex="1" parent="1">
          <mxGeometry x="693" y="339" width="140" height="70" as="geometry" />
        </mxCell>
        <mxCell id="E9D1vIoWVID96YeOAwqb-52" value="" style="html=1;endArrow=none;verticalAlign=bottom;rounded=0;entryX=0.001;entryY=0.47;entryDx=0;entryDy=0;entryPerimeter=0;" edge="1" parent="1" source="E9D1vIoWVID96YeOAwqb-33" target="E9D1vIoWVID96YeOAwqb-46">
          <mxGeometry width="160" relative="1" as="geometry">
            <mxPoint x="554" y="273" as="sourcePoint" />
            <mxPoint x="697" y="437" as="targetPoint" />
          </mxGeometry>
        </mxCell>
        <mxCell id="E9D1vIoWVID96YeOAwqb-53" value="" style="html=1;endArrow=none;verticalAlign=bottom;rounded=0;entryX=0;entryY=0.5;entryDx=0;entryDy=0;" edge="1" parent="1" target="E9D1vIoWVID96YeOAwqb-42">
          <mxGeometry width="160" relative="1" as="geometry">
            <mxPoint x="555" y="286" as="sourcePoint" />
            <mxPoint x="700" y="415" as="targetPoint" />
          </mxGeometry>
        </mxCell>
        <mxCell id="E9D1vIoWVID96YeOAwqb-54" value="" style="html=1;endArrow=none;verticalAlign=bottom;rounded=0;entryX=0;entryY=0.5;entryDx=0;entryDy=0;" edge="1" parent="1" target="E9D1vIoWVID96YeOAwqb-48">
          <mxGeometry width="160" relative="1" as="geometry">
            <mxPoint x="555" y="286" as="sourcePoint" />
            <mxPoint x="685" y="465.00000000000006" as="targetPoint" />
          </mxGeometry>
        </mxCell>
        <mxCell id="E9D1vIoWVID96YeOAwqb-55" value="&amp;lt;&amp;lt;include&amp;gt;&amp;gt;" style="edgeStyle=none;html=1;endArrow=none;verticalAlign=bottom;dashed=1;labelBackgroundColor=none;rounded=0;exitX=0.5;exitY=1;exitDx=0;exitDy=0;entryX=0.5;entryY=0;entryDx=0;entryDy=0;startArrow=open;startFill=0;" edge="1" parent="1" source="E9D1vIoWVID96YeOAwqb-43" target="E9D1vIoWVID96YeOAwqb-45">
          <mxGeometry x="0.0066" y="35" width="160" relative="1" as="geometry">
            <mxPoint x="488" y="314" as="sourcePoint" />
            <mxPoint x="648" y="314" as="targetPoint" />
            <mxPoint as="offset" />
          </mxGeometry>
        </mxCell>
        <mxCell id="E9D1vIoWVID96YeOAwqb-56" value="&amp;lt;&amp;lt;include&amp;gt;&amp;gt;" style="edgeStyle=none;html=1;endArrow=none;verticalAlign=bottom;dashed=1;labelBackgroundColor=none;rounded=0;exitX=0;exitY=0.5;exitDx=0;exitDy=0;entryX=1;entryY=1;entryDx=0;entryDy=0;startArrow=open;startFill=0;" edge="1" parent="1" source="E9D1vIoWVID96YeOAwqb-45" target="E9D1vIoWVID96YeOAwqb-48">
          <mxGeometry x="-0.0556" y="-10" width="160" relative="1" as="geometry">
            <mxPoint x="488" y="314" as="sourcePoint" />
            <mxPoint x="648" y="314" as="targetPoint" />
            <mxPoint as="offset" />
          </mxGeometry>
        </mxCell>
        <mxCell id="E9D1vIoWVID96YeOAwqb-57" value="&lt;span style=&quot;text-wrap-mode: nowrap;&quot;&gt;Сотрудник технической&amp;nbsp;&lt;/span&gt;&lt;div style=&quot;text-wrap-mode: nowrap;&quot;&gt;поддержки работает&amp;nbsp;&lt;/div&gt;&lt;div style=&quot;text-wrap-mode: nowrap;&quot;&gt;с пользователями&amp;nbsp;&lt;/div&gt;&lt;div style=&quot;text-wrap-mode: nowrap;&quot;&gt;по их запросам&lt;/div&gt;" style="shape=note2;boundedLbl=1;whiteSpace=wrap;html=1;size=25;verticalAlign=top;align=center;" vertex="1" parent="1">
          <mxGeometry x="630.5" y="18" width="180" height="101.25" as="geometry" />
        </mxCell>
        <mxCell id="E9D1vIoWVID96YeOAwqb-58" style="rounded=0;orthogonalLoop=1;jettySize=auto;html=1;endArrow=none;startFill=0;dashed=1;exitX=0.5;exitY=1;exitDx=0;exitDy=0;exitPerimeter=0;entryX=0.5;entryY=0;entryDx=0;entryDy=0;" edge="1" parent="1" source="E9D1vIoWVID96YeOAwqb-57">
          <mxGeometry relative="1" as="geometry">
            <mxPoint x="265.02" y="109" as="sourcePoint" />
            <mxPoint x="720.02" y="139" as="targetPoint" />
          </mxGeometry>
        </mxCell>
        <mxCell id="E9D1vIoWVID96YeOAwqb-59" value="&lt;span style=&quot;text-wrap-mode: nowrap;&quot;&gt;Сотрудник технической&amp;nbsp;&lt;/span&gt;&lt;div style=&quot;text-wrap-mode: nowrap;&quot;&gt;поддержки отслеживает&lt;/div&gt;&lt;div style=&quot;text-wrap-mode: nowrap;&quot;&gt;и устраняет неполадки,&amp;nbsp;&lt;/div&gt;&lt;div style=&quot;text-wrap-mode: nowrap;&quot;&gt;которые&amp;nbsp;&lt;/div&gt;&lt;div style=&quot;text-wrap-mode: nowrap;&quot;&gt;может выполнить без&amp;nbsp;&lt;/div&gt;&lt;div style=&quot;text-wrap-mode: nowrap;&quot;&gt;участия&amp;nbsp;&lt;/div&gt;&lt;div style=&quot;text-wrap-mode: nowrap;&quot;&gt;системного администратора&lt;/div&gt;" style="shape=note2;boundedLbl=1;whiteSpace=wrap;html=1;size=25;verticalAlign=top;align=center;" vertex="1" parent="1">
          <mxGeometry x="867" y="100" width="180" height="135.88" as="geometry" />
        </mxCell>
        <mxCell id="E9D1vIoWVID96YeOAwqb-60" style="rounded=0;orthogonalLoop=1;jettySize=auto;html=1;endArrow=none;startFill=0;dashed=1;exitX=0;exitY=0.5;exitDx=0;exitDy=0;exitPerimeter=0;entryX=1;entryY=0.5;entryDx=0;entryDy=0;" edge="1" parent="1" source="E9D1vIoWVID96YeOAwqb-59" target="E9D1vIoWVID96YeOAwqb-46">
          <mxGeometry relative="1" as="geometry">
            <mxPoint x="529.52" y="181" as="sourcePoint" />
            <mxPoint x="984.52" y="211" as="targetPoint" />
          </mxGeometry>
        </mxCell>
        <mxCell id="E9D1vIoWVID96YeOAwqb-64" style="rounded=0;orthogonalLoop=1;jettySize=auto;html=1;exitX=0.5;exitY=1;exitDx=0;exitDy=0;exitPerimeter=0;entryX=0.5;entryY=0;entryDx=0;entryDy=0;dashed=1;endArrow=none;startFill=0;" edge="1" parent="1" source="E9D1vIoWVID96YeOAwqb-61" target="E9D1vIoWVID96YeOAwqb-5">
          <mxGeometry relative="1" as="geometry" />
        </mxCell>
        <mxCell id="E9D1vIoWVID96YeOAwqb-61" value="Пользователь может обратиться в тех. поддержку при возникновении вопросов" style="shape=note2;boundedLbl=1;whiteSpace=wrap;html=1;size=25;verticalAlign=top;align=center;" vertex="1" parent="1">
          <mxGeometry x="-207.5" y="-31" width="180" height="86.88" as="geometry" />
        </mxCell>
        <mxCell id="E9D1vIoWVID96YeOAwqb-62" value="Пользователь может запросить разные консультации (юридическая, техническая), при использовании сервиса" style="shape=note2;boundedLbl=1;whiteSpace=wrap;html=1;size=25;verticalAlign=top;align=center;" vertex="1" parent="1">
          <mxGeometry x="68" y="92.12" width="180" height="96.88" as="geometry" />
        </mxCell>
        <mxCell id="E9D1vIoWVID96YeOAwqb-63" value="Пользователь может запросить проверку юридической чистоты объекта, но только при регистрации на сайте" style="shape=note2;boundedLbl=1;whiteSpace=wrap;html=1;size=25;verticalAlign=top;align=center;" vertex="1" parent="1">
          <mxGeometry x="78" y="224" width="180" height="100" as="geometry" />
        </mxCell>
        <mxCell id="E9D1vIoWVID96YeOAwqb-65" value="Пользователь может выставить необходимые фильтры при поиске, а также поставить фильтр на выданные результаты" style="shape=note2;boundedLbl=1;whiteSpace=wrap;html=1;size=25;verticalAlign=top;align=center;" vertex="1" parent="1">
          <mxGeometry x="137" y="360" width="180" height="110.88" as="geometry" />
        </mxCell>
        <mxCell id="E9D1vIoWVID96YeOAwqb-66" value="Пользователь может просмотреть подробную информацию о выбранном объекте недвижимости" style="shape=note2;boundedLbl=1;whiteSpace=wrap;html=1;size=25;verticalAlign=top;align=center;" vertex="1" parent="1">
          <mxGeometry x="317" y="496.56" width="180" height="96.44" as="geometry" />
        </mxCell>
        <mxCell id="E9D1vIoWVID96YeOAwqb-67" style="edgeStyle=none;shape=connector;rounded=0;orthogonalLoop=1;jettySize=auto;html=1;exitX=1;exitY=0.5;exitDx=0;exitDy=0;entryX=0;entryY=0.5;entryDx=0;entryDy=0;entryPerimeter=0;dashed=1;strokeColor=default;align=center;verticalAlign=middle;fontFamily=Helvetica;fontSize=11;fontColor=default;labelBackgroundColor=default;startFill=0;endArrow=none;" edge="1" parent="1" source="E9D1vIoWVID96YeOAwqb-11" target="E9D1vIoWVID96YeOAwqb-66">
          <mxGeometry relative="1" as="geometry" />
        </mxCell>
        <mxCell id="E9D1vIoWVID96YeOAwqb-68" style="edgeStyle=none;shape=connector;rounded=0;orthogonalLoop=1;jettySize=auto;html=1;exitX=1;exitY=0.5;exitDx=0;exitDy=0;entryX=0;entryY=0.5;entryDx=0;entryDy=0;entryPerimeter=0;dashed=1;strokeColor=default;align=center;verticalAlign=middle;fontFamily=Helvetica;fontSize=11;fontColor=default;labelBackgroundColor=default;startFill=0;endArrow=none;" edge="1" parent="1" source="E9D1vIoWVID96YeOAwqb-13" target="E9D1vIoWVID96YeOAwqb-65">
          <mxGeometry relative="1" as="geometry" />
        </mxCell>
        <mxCell id="E9D1vIoWVID96YeOAwqb-69" value="Пользователь выполняет поиск недвижимости (регистрация при этом необязательна)" style="shape=note2;boundedLbl=1;whiteSpace=wrap;html=1;size=25;verticalAlign=top;align=center;" vertex="1" parent="1">
          <mxGeometry x="90.5" y="630" width="180" height="86.88" as="geometry" />
        </mxCell>
        <mxCell id="E9D1vIoWVID96YeOAwqb-70" style="edgeStyle=none;shape=connector;rounded=0;orthogonalLoop=1;jettySize=auto;html=1;exitX=0.5;exitY=1;exitDx=0;exitDy=0;entryX=0;entryY=0.5;entryDx=0;entryDy=0;entryPerimeter=0;dashed=1;strokeColor=default;align=center;verticalAlign=middle;fontFamily=Helvetica;fontSize=11;fontColor=default;labelBackgroundColor=default;startFill=0;endArrow=none;" edge="1" parent="1" source="E9D1vIoWVID96YeOAwqb-7" target="E9D1vIoWVID96YeOAwqb-69">
          <mxGeometry relative="1" as="geometry" />
        </mxCell>
        <mxCell id="E9D1vIoWVID96YeOAwqb-74" style="edgeStyle=none;shape=connector;rounded=0;orthogonalLoop=1;jettySize=auto;html=1;exitX=0.5;exitY=1;exitDx=0;exitDy=0;exitPerimeter=0;entryX=0;entryY=0;entryDx=0;entryDy=0;dashed=1;strokeColor=default;align=center;verticalAlign=middle;fontFamily=Helvetica;fontSize=11;fontColor=default;labelBackgroundColor=default;startFill=0;endArrow=none;" edge="1" parent="1" source="E9D1vIoWVID96YeOAwqb-71" target="E9D1vIoWVID96YeOAwqb-10">
          <mxGeometry relative="1" as="geometry" />
        </mxCell>
        <mxCell id="E9D1vIoWVID96YeOAwqb-71" value="Пользователь может войти в свою учетную запись, которую создал ранее" style="shape=note2;boundedLbl=1;whiteSpace=wrap;html=1;size=25;verticalAlign=top;align=center;" vertex="1" parent="1">
          <mxGeometry x="-608" y="85.12" width="180" height="86.88" as="geometry" />
        </mxCell>
        <mxCell id="E9D1vIoWVID96YeOAwqb-73" style="edgeStyle=none;shape=connector;rounded=0;orthogonalLoop=1;jettySize=auto;html=1;exitX=0;exitY=0;exitDx=180;exitDy=55.94;exitPerimeter=0;entryX=0;entryY=0.5;entryDx=0;entryDy=0;dashed=1;strokeColor=default;align=center;verticalAlign=middle;fontFamily=Helvetica;fontSize=11;fontColor=default;labelBackgroundColor=default;startFill=0;endArrow=none;" edge="1" parent="1" source="E9D1vIoWVID96YeOAwqb-72" target="E9D1vIoWVID96YeOAwqb-9">
          <mxGeometry relative="1" as="geometry" />
        </mxCell>
        <mxCell id="E9D1vIoWVID96YeOAwqb-72" value="Пользователь выполняет регистрацию на сайте, внося свои данные" style="shape=note2;boundedLbl=1;whiteSpace=wrap;html=1;size=25;verticalAlign=top;align=center;" vertex="1" parent="1">
          <mxGeometry x="-837" y="325" width="180" height="86.88" as="geometry" />
        </mxCell>
        <mxCell id="E9D1vIoWVID96YeOAwqb-75" style="edgeStyle=none;shape=connector;rounded=0;orthogonalLoop=1;jettySize=auto;html=1;exitX=1;exitY=0;exitDx=0;exitDy=0;entryX=0;entryY=0.5;entryDx=0;entryDy=0;entryPerimeter=0;dashed=1;strokeColor=default;align=center;verticalAlign=middle;fontFamily=Helvetica;fontSize=11;fontColor=default;labelBackgroundColor=default;startFill=0;endArrow=none;" edge="1" parent="1" source="E9D1vIoWVID96YeOAwqb-6" target="E9D1vIoWVID96YeOAwqb-62">
          <mxGeometry relative="1" as="geometry" />
        </mxCell>
        <mxCell id="E9D1vIoWVID96YeOAwqb-76" style="edgeStyle=none;shape=connector;rounded=0;orthogonalLoop=1;jettySize=auto;html=1;exitX=1;exitY=0;exitDx=0;exitDy=0;entryX=0;entryY=0.5;entryDx=0;entryDy=0;entryPerimeter=0;dashed=1;strokeColor=default;align=center;verticalAlign=middle;fontFamily=Helvetica;fontSize=11;fontColor=default;labelBackgroundColor=default;startFill=0;endArrow=none;" edge="1" parent="1" source="E9D1vIoWVID96YeOAwqb-4" target="E9D1vIoWVID96YeOAwqb-63">
          <mxGeometry relative="1" as="geometry" />
        </mxCell>
        <mxCell id="E9D1vIoWVID96YeOAwqb-77" value="&lt;span style=&quot;text-wrap-mode: nowrap;&quot;&gt;Сотрудник технической&amp;nbsp;&lt;/span&gt;&lt;div style=&quot;text-wrap-mode: nowrap;&quot;&gt;поддержки передает отчеты&amp;nbsp;&lt;/div&gt;&lt;div style=&quot;text-wrap-mode: nowrap;&quot;&gt;системному администратору&lt;/div&gt;" style="shape=note2;boundedLbl=1;whiteSpace=wrap;html=1;size=25;verticalAlign=top;align=center;" vertex="1" parent="1">
          <mxGeometry x="1098" y="251.56" width="180" height="86.88" as="geometry" />
        </mxCell>
        <mxCell id="E9D1vIoWVID96YeOAwqb-78" value="&lt;span style=&quot;text-wrap-mode: nowrap;&quot;&gt;Сотрудник технической&amp;nbsp;&lt;/span&gt;&lt;div style=&quot;text-wrap-mode: nowrap;&quot;&gt;поддержки формирует отчеты&amp;nbsp;&lt;/div&gt;&lt;div style=&quot;text-wrap-mode: nowrap;&quot;&gt;для системного&amp;nbsp;&lt;/div&gt;&lt;div style=&quot;text-wrap-mode: nowrap;&quot;&gt;администратора и&amp;nbsp;&lt;/div&gt;&lt;div style=&quot;text-wrap-mode: nowrap;&quot;&gt;лога работы системы&lt;/div&gt;" style="shape=note2;boundedLbl=1;whiteSpace=wrap;html=1;size=25;verticalAlign=top;align=center;" vertex="1" parent="1">
          <mxGeometry x="1105" y="386.56" width="180" height="111.44" as="geometry" />
        </mxCell>
        <mxCell id="E9D1vIoWVID96YeOAwqb-79" style="edgeStyle=none;shape=connector;rounded=0;orthogonalLoop=1;jettySize=auto;html=1;exitX=1;exitY=0.5;exitDx=0;exitDy=0;entryX=0;entryY=0.5;entryDx=0;entryDy=0;entryPerimeter=0;dashed=1;strokeColor=default;align=center;verticalAlign=middle;fontFamily=Helvetica;fontSize=11;fontColor=default;labelBackgroundColor=default;startFill=0;endArrow=none;" edge="1" parent="1" source="E9D1vIoWVID96YeOAwqb-43" target="E9D1vIoWVID96YeOAwqb-77">
          <mxGeometry relative="1" as="geometry" />
        </mxCell>
        <mxCell id="E9D1vIoWVID96YeOAwqb-80" style="edgeStyle=none;shape=connector;rounded=0;orthogonalLoop=1;jettySize=auto;html=1;exitX=1;exitY=0.5;exitDx=0;exitDy=0;entryX=0;entryY=0.5;entryDx=0;entryDy=0;entryPerimeter=0;dashed=1;strokeColor=default;align=center;verticalAlign=middle;fontFamily=Helvetica;fontSize=11;fontColor=default;labelBackgroundColor=default;startFill=0;endArrow=none;" edge="1" parent="1" source="E9D1vIoWVID96YeOAwqb-45" target="E9D1vIoWVID96YeOAwqb-78">
          <mxGeometry relative="1" as="geometry" />
        </mxCell>
        <mxCell id="E9D1vIoWVID96YeOAwqb-82" style="edgeStyle=none;shape=connector;rounded=0;orthogonalLoop=1;jettySize=auto;html=1;exitX=0.5;exitY=0;exitDx=0;exitDy=0;exitPerimeter=0;entryX=0.5;entryY=1;entryDx=0;entryDy=0;dashed=1;strokeColor=default;align=center;verticalAlign=middle;fontFamily=Helvetica;fontSize=11;fontColor=default;labelBackgroundColor=default;startFill=0;endArrow=none;" edge="1" parent="1" source="E9D1vIoWVID96YeOAwqb-81" target="E9D1vIoWVID96YeOAwqb-48">
          <mxGeometry relative="1" as="geometry" />
        </mxCell>
        <mxCell id="E9D1vIoWVID96YeOAwqb-81" value="&lt;span style=&quot;text-wrap-mode: nowrap;&quot;&gt;Сотрудник технической&amp;nbsp;&lt;/span&gt;&lt;div style=&quot;text-wrap-mode: nowrap;&quot;&gt;поддержки наблюдает&amp;nbsp;&lt;/div&gt;&lt;div style=&quot;text-wrap-mode: nowrap;&quot;&gt;за работой системы&lt;/div&gt;" style="shape=note2;boundedLbl=1;whiteSpace=wrap;html=1;size=25;verticalAlign=top;align=center;" vertex="1" parent="1">
          <mxGeometry x="673" y="439" width="180" height="86" as="geometry" />
        </mxCell>
        <mxCell id="E9D1vIoWVID96YeOAwqb-83" value="Системный&amp;nbsp;&lt;div&gt;администратор&lt;/div&gt;" style="shape=umlActor;verticalLabelPosition=bottom;verticalAlign=top;html=1;outlineConnect=0;" vertex="1" parent="1">
          <mxGeometry x="2861" y="-217.55999999999995" width="30" height="60" as="geometry" />
        </mxCell>
        <mxCell id="E9D1vIoWVID96YeOAwqb-84" value="Поиск и устранение сбоев и ошибок в системе" style="ellipse;whiteSpace=wrap;html=1;" vertex="1" parent="1">
          <mxGeometry x="3045" y="-20.559999999999945" width="140" height="70" as="geometry" />
        </mxCell>
        <mxCell id="E9D1vIoWVID96YeOAwqb-85" value="Системный администратор занимается резервным копированием, оптимизацией БД" style="shape=note2;boundedLbl=1;whiteSpace=wrap;html=1;size=25;verticalAlign=top;align=center;" vertex="1" parent="1">
          <mxGeometry x="3249" y="-342" width="180" height="102.44" as="geometry" />
        </mxCell>
        <mxCell id="E9D1vIoWVID96YeOAwqb-91" value="Взаимодействие с технической поддержкой" style="ellipse;whiteSpace=wrap;html=1;" vertex="1" parent="1">
          <mxGeometry x="3109" y="-182.55999999999995" width="140" height="70" as="geometry" />
        </mxCell>
        <mxCell id="E9D1vIoWVID96YeOAwqb-92" value="Администрирование базы данных" style="ellipse;whiteSpace=wrap;html=1;" vertex="1" parent="1">
          <mxGeometry x="3013" y="-333.55999999999995" width="140" height="70" as="geometry" />
        </mxCell>
        <mxCell id="E9D1vIoWVID96YeOAwqb-96" value="" style="edgeStyle=none;html=1;endArrow=none;verticalAlign=bottom;rounded=0;strokeColor=default;align=center;fontFamily=Helvetica;fontSize=11;fontColor=default;labelBackgroundColor=default;entryX=0;entryY=0.5;entryDx=0;entryDy=0;" edge="1" parent="1" source="E9D1vIoWVID96YeOAwqb-83" target="E9D1vIoWVID96YeOAwqb-92">
          <mxGeometry width="160" relative="1" as="geometry">
            <mxPoint x="3216" y="-193.55999999999995" as="sourcePoint" />
            <mxPoint x="3376" y="-193.55999999999995" as="targetPoint" />
          </mxGeometry>
        </mxCell>
        <mxCell id="E9D1vIoWVID96YeOAwqb-97" value="" style="edgeStyle=none;html=1;endArrow=none;verticalAlign=bottom;rounded=0;strokeColor=default;align=center;fontFamily=Helvetica;fontSize=11;fontColor=default;labelBackgroundColor=default;entryX=0;entryY=0.5;entryDx=0;entryDy=0;" edge="1" parent="1" source="E9D1vIoWVID96YeOAwqb-83" target="E9D1vIoWVID96YeOAwqb-91">
          <mxGeometry width="160" relative="1" as="geometry">
            <mxPoint x="3216" y="-193.55999999999995" as="sourcePoint" />
            <mxPoint x="3376" y="-193.55999999999995" as="targetPoint" />
          </mxGeometry>
        </mxCell>
        <mxCell id="E9D1vIoWVID96YeOAwqb-98" value="" style="edgeStyle=none;html=1;endArrow=none;verticalAlign=bottom;rounded=0;strokeColor=default;align=center;fontFamily=Helvetica;fontSize=11;fontColor=default;labelBackgroundColor=default;entryX=0;entryY=0.5;entryDx=0;entryDy=0;" edge="1" parent="1" source="E9D1vIoWVID96YeOAwqb-83" target="E9D1vIoWVID96YeOAwqb-84">
          <mxGeometry width="160" relative="1" as="geometry">
            <mxPoint x="2901" y="-172.55999999999995" as="sourcePoint" />
            <mxPoint x="3022" y="-135.55999999999995" as="targetPoint" />
          </mxGeometry>
        </mxCell>
        <mxCell id="E9D1vIoWVID96YeOAwqb-99" value="Системный администратор проверяет отчеты от технической поддержки и устраняет переданные проблемы" style="shape=note2;boundedLbl=1;whiteSpace=wrap;html=1;size=25;verticalAlign=top;align=center;" vertex="1" parent="1">
          <mxGeometry x="3300" y="-191" width="180" height="105.44" as="geometry" />
        </mxCell>
        <mxCell id="E9D1vIoWVID96YeOAwqb-100" value="Системный администратор мониторит систему и устраняет сбои в ее работе" style="shape=note2;boundedLbl=1;whiteSpace=wrap;html=1;size=25;verticalAlign=top;align=center;" vertex="1" parent="1">
          <mxGeometry x="3244.5" y="-29" width="180" height="86.88" as="geometry" />
        </mxCell>
        <mxCell id="E9D1vIoWVID96YeOAwqb-101" style="edgeStyle=none;shape=connector;rounded=0;orthogonalLoop=1;jettySize=auto;html=1;exitX=1;exitY=0.5;exitDx=0;exitDy=0;entryX=0;entryY=0.5;entryDx=0;entryDy=0;entryPerimeter=0;strokeColor=default;align=center;verticalAlign=bottom;fontFamily=Helvetica;fontSize=11;fontColor=default;labelBackgroundColor=default;endArrow=none;dashed=1;" edge="1" parent="1" source="E9D1vIoWVID96YeOAwqb-84" target="E9D1vIoWVID96YeOAwqb-100">
          <mxGeometry relative="1" as="geometry" />
        </mxCell>
        <mxCell id="E9D1vIoWVID96YeOAwqb-102" style="edgeStyle=none;shape=connector;rounded=0;orthogonalLoop=1;jettySize=auto;html=1;exitX=1;exitY=0.5;exitDx=0;exitDy=0;entryX=0;entryY=0.5;entryDx=0;entryDy=0;entryPerimeter=0;strokeColor=default;align=center;verticalAlign=bottom;fontFamily=Helvetica;fontSize=11;fontColor=default;labelBackgroundColor=default;endArrow=none;dashed=1;" edge="1" parent="1" source="E9D1vIoWVID96YeOAwqb-91" target="E9D1vIoWVID96YeOAwqb-99">
          <mxGeometry relative="1" as="geometry" />
        </mxCell>
        <mxCell id="E9D1vIoWVID96YeOAwqb-103" style="edgeStyle=none;shape=connector;rounded=0;orthogonalLoop=1;jettySize=auto;html=1;exitX=1;exitY=0.5;exitDx=0;exitDy=0;entryX=0;entryY=0.5;entryDx=0;entryDy=0;entryPerimeter=0;strokeColor=default;align=center;verticalAlign=bottom;fontFamily=Helvetica;fontSize=11;fontColor=default;labelBackgroundColor=default;endArrow=none;dashed=1;" edge="1" parent="1" source="E9D1vIoWVID96YeOAwqb-92" target="E9D1vIoWVID96YeOAwqb-85">
          <mxGeometry relative="1" as="geometry" />
        </mxCell>
        <mxCell id="E9D1vIoWVID96YeOAwqb-104" value="Юридический&amp;nbsp;&lt;div&gt;аналитик&lt;/div&gt;" style="shape=umlActor;verticalLabelPosition=bottom;verticalAlign=top;html=1;outlineConnect=0;" vertex="1" parent="1">
          <mxGeometry x="2231" y="560.44" width="30" height="60" as="geometry" />
        </mxCell>
        <mxCell id="E9D1vIoWVID96YeOAwqb-105" value="Формирование экспертного заключения" style="ellipse;whiteSpace=wrap;html=1;" vertex="1" parent="1">
          <mxGeometry x="2408" y="602" width="155" height="76" as="geometry" />
        </mxCell>
        <mxCell id="E9D1vIoWVID96YeOAwqb-106" value="&lt;span style=&quot;text-wrap-mode: nowrap;&quot;&gt;Юридический&amp;nbsp;&lt;/span&gt;&lt;div style=&quot;text-wrap-mode: nowrap;&quot;&gt;аналитик выполняет проверку&lt;br&gt;как по запросам, так и для&lt;br&gt;некоторых объектов по&lt;br&gt;умолчанию при добавлении &lt;br&gt;в систему&lt;/div&gt;" style="shape=note2;boundedLbl=1;whiteSpace=wrap;html=1;size=25;verticalAlign=top;align=center;" vertex="1" parent="1">
          <mxGeometry x="2619" y="436" width="180" height="123" as="geometry" />
        </mxCell>
        <mxCell id="E9D1vIoWVID96YeOAwqb-107" value="Анализ рисков по объекту недвижимости" style="ellipse;whiteSpace=wrap;html=1;" vertex="1" parent="1">
          <mxGeometry x="2469" y="779.44" width="140" height="70" as="geometry" />
        </mxCell>
        <mxCell id="E9D1vIoWVID96YeOAwqb-108" value="Проверка юридической чистоты объектов" style="ellipse;whiteSpace=wrap;html=1;" vertex="1" parent="1">
          <mxGeometry x="2383" y="444.44000000000005" width="140" height="70" as="geometry" />
        </mxCell>
        <mxCell id="E9D1vIoWVID96YeOAwqb-109" value="" style="edgeStyle=none;html=1;endArrow=none;verticalAlign=bottom;rounded=0;strokeColor=default;align=center;fontFamily=Helvetica;fontSize=11;fontColor=default;labelBackgroundColor=default;entryX=0;entryY=0.5;entryDx=0;entryDy=0;" edge="1" parent="1" source="E9D1vIoWVID96YeOAwqb-104" target="E9D1vIoWVID96YeOAwqb-108">
          <mxGeometry width="160" relative="1" as="geometry">
            <mxPoint x="2586" y="584.44" as="sourcePoint" />
            <mxPoint x="2746" y="584.44" as="targetPoint" />
          </mxGeometry>
        </mxCell>
        <mxCell id="E9D1vIoWVID96YeOAwqb-110" value="" style="edgeStyle=none;html=1;endArrow=none;verticalAlign=bottom;rounded=0;strokeColor=default;align=center;fontFamily=Helvetica;fontSize=11;fontColor=default;labelBackgroundColor=default;entryX=0;entryY=0.5;entryDx=0;entryDy=0;" edge="1" parent="1" source="E9D1vIoWVID96YeOAwqb-104" target="E9D1vIoWVID96YeOAwqb-107">
          <mxGeometry width="160" relative="1" as="geometry">
            <mxPoint x="2586" y="584.44" as="sourcePoint" />
            <mxPoint x="2746" y="584.44" as="targetPoint" />
          </mxGeometry>
        </mxCell>
        <mxCell id="E9D1vIoWVID96YeOAwqb-111" value="" style="edgeStyle=none;html=1;endArrow=none;verticalAlign=bottom;rounded=0;strokeColor=default;align=center;fontFamily=Helvetica;fontSize=11;fontColor=default;labelBackgroundColor=default;entryX=0;entryY=0.5;entryDx=0;entryDy=0;" edge="1" parent="1" source="E9D1vIoWVID96YeOAwqb-104" target="E9D1vIoWVID96YeOAwqb-105">
          <mxGeometry width="160" relative="1" as="geometry">
            <mxPoint x="2271" y="605.44" as="sourcePoint" />
            <mxPoint x="2392" y="642.44" as="targetPoint" />
          </mxGeometry>
        </mxCell>
        <mxCell id="E9D1vIoWVID96YeOAwqb-112" value="Юридический аналитик выявляет возможные ограничения и обременения,&amp;nbsp;&lt;span style=&quot;background-color: transparent; color: light-dark(rgb(0, 0, 0), rgb(255, 255, 255));&quot;&gt;определяет возможные юридические последствия&lt;/span&gt;" style="shape=note2;boundedLbl=1;whiteSpace=wrap;html=1;size=25;verticalAlign=top;align=center;" vertex="1" parent="1">
          <mxGeometry x="2660" y="771" width="180" height="125" as="geometry" />
        </mxCell>
        <mxCell id="E9D1vIoWVID96YeOAwqb-113" value="&lt;span style=&quot;text-wrap-mode: nowrap;&quot;&gt;Юридический&amp;nbsp;&lt;/span&gt;&lt;div style=&quot;text-wrap-mode: nowrap;&quot;&gt;аналитик формирует&amp;nbsp;&lt;br&gt;заключение по объекту &lt;br&gt;с&amp;nbsp;рекомендациями, и передает &lt;br&gt;его регистратору &lt;br&gt;или пользователю&lt;/div&gt;" style="shape=note2;boundedLbl=1;whiteSpace=wrap;html=1;size=25;verticalAlign=top;align=center;" vertex="1" parent="1">
          <mxGeometry x="2622" y="582.22" width="180" height="138.44" as="geometry" />
        </mxCell>
        <mxCell id="E9D1vIoWVID96YeOAwqb-114" style="edgeStyle=none;shape=connector;rounded=0;orthogonalLoop=1;jettySize=auto;html=1;exitX=1;exitY=0.5;exitDx=0;exitDy=0;entryX=0;entryY=0.5;entryDx=0;entryDy=0;entryPerimeter=0;strokeColor=default;align=center;verticalAlign=bottom;fontFamily=Helvetica;fontSize=11;fontColor=default;labelBackgroundColor=default;endArrow=none;dashed=1;" edge="1" parent="1" source="E9D1vIoWVID96YeOAwqb-105" target="E9D1vIoWVID96YeOAwqb-113">
          <mxGeometry relative="1" as="geometry" />
        </mxCell>
        <mxCell id="E9D1vIoWVID96YeOAwqb-115" style="edgeStyle=none;shape=connector;rounded=0;orthogonalLoop=1;jettySize=auto;html=1;exitX=1;exitY=0.5;exitDx=0;exitDy=0;entryX=0;entryY=0.5;entryDx=0;entryDy=0;entryPerimeter=0;strokeColor=default;align=center;verticalAlign=bottom;fontFamily=Helvetica;fontSize=11;fontColor=default;labelBackgroundColor=default;endArrow=none;dashed=1;" edge="1" parent="1" source="E9D1vIoWVID96YeOAwqb-107" target="E9D1vIoWVID96YeOAwqb-112">
          <mxGeometry relative="1" as="geometry" />
        </mxCell>
        <mxCell id="E9D1vIoWVID96YeOAwqb-116" style="edgeStyle=none;shape=connector;rounded=0;orthogonalLoop=1;jettySize=auto;html=1;exitX=1;exitY=0.5;exitDx=0;exitDy=0;entryX=0;entryY=0.5;entryDx=0;entryDy=0;entryPerimeter=0;strokeColor=default;align=center;verticalAlign=bottom;fontFamily=Helvetica;fontSize=11;fontColor=default;labelBackgroundColor=default;endArrow=none;dashed=1;" edge="1" parent="1" source="E9D1vIoWVID96YeOAwqb-108" target="E9D1vIoWVID96YeOAwqb-106">
          <mxGeometry relative="1" as="geometry" />
        </mxCell>
        <mxCell id="E9D1vIoWVID96YeOAwqb-118" value="Анализ правоустанавливающих документов" style="ellipse;whiteSpace=wrap;html=1;" vertex="1" parent="1">
          <mxGeometry x="2221" y="332" width="140" height="70" as="geometry" />
        </mxCell>
        <mxCell id="E9D1vIoWVID96YeOAwqb-119" value="Поиск сведений о судебных спорах" style="ellipse;whiteSpace=wrap;html=1;" vertex="1" parent="1">
          <mxGeometry x="2492" y="332" width="140" height="70" as="geometry" />
        </mxCell>
        <mxCell id="E9D1vIoWVID96YeOAwqb-121" value="&amp;lt;&amp;lt;include&amp;gt;&amp;gt;" style="edgeStyle=none;html=1;endArrow=open;verticalAlign=bottom;dashed=1;labelBackgroundColor=none;rounded=0;strokeColor=default;align=center;fontFamily=Helvetica;fontSize=11;fontColor=default;entryX=0;entryY=0;entryDx=0;entryDy=0;exitX=1;exitY=1;exitDx=0;exitDy=0;" edge="1" parent="1" source="E9D1vIoWVID96YeOAwqb-118" target="E9D1vIoWVID96YeOAwqb-108">
          <mxGeometry x="0.2349" y="21" width="160" relative="1" as="geometry">
            <mxPoint x="2228" y="357" as="sourcePoint" />
            <mxPoint x="2388" y="357" as="targetPoint" />
            <mxPoint as="offset" />
          </mxGeometry>
        </mxCell>
        <mxCell id="E9D1vIoWVID96YeOAwqb-122" value="&amp;lt;&amp;lt;include&amp;gt;&amp;gt;" style="edgeStyle=none;html=1;endArrow=open;verticalAlign=bottom;dashed=1;labelBackgroundColor=none;rounded=0;strokeColor=default;align=center;fontFamily=Helvetica;fontSize=11;fontColor=default;exitX=0;exitY=1;exitDx=0;exitDy=0;entryX=1;entryY=0;entryDx=0;entryDy=0;" edge="1" parent="1" source="E9D1vIoWVID96YeOAwqb-119" target="E9D1vIoWVID96YeOAwqb-108">
          <mxGeometry x="0.0352" y="36" width="160" relative="1" as="geometry">
            <mxPoint x="2228" y="357" as="sourcePoint" />
            <mxPoint x="2388" y="357" as="targetPoint" />
            <mxPoint y="1" as="offset" />
          </mxGeometry>
        </mxCell>
        <mxCell id="E9D1vIoWVID96YeOAwqb-123" value="&lt;span style=&quot;text-wrap-mode: nowrap;&quot;&gt;Юридический&amp;nbsp;&lt;/span&gt;&lt;div style=&quot;text-wrap-mode: nowrap;&quot;&gt;аналитик выполняет поиск&lt;br&gt;среди судебных споров&lt;/div&gt;" style="shape=note2;boundedLbl=1;whiteSpace=wrap;html=1;size=25;verticalAlign=top;align=center;" vertex="1" parent="1">
          <mxGeometry x="2476" y="220" width="180" height="89" as="geometry" />
        </mxCell>
        <mxCell id="E9D1vIoWVID96YeOAwqb-124" value="&lt;span style=&quot;text-wrap-mode: nowrap;&quot;&gt;Юридический&amp;nbsp;&lt;/span&gt;&lt;div style=&quot;text-wrap-mode: nowrap;&quot;&gt;аналитик выполняет проверку&lt;br&gt;правоустанавливающих &lt;br&gt;документов&lt;/div&gt;" style="shape=note2;boundedLbl=1;whiteSpace=wrap;html=1;size=25;verticalAlign=top;align=center;" vertex="1" parent="1">
          <mxGeometry x="2201" y="203" width="180" height="106" as="geometry" />
        </mxCell>
        <mxCell id="E9D1vIoWVID96YeOAwqb-125" style="edgeStyle=none;shape=connector;rounded=0;orthogonalLoop=1;jettySize=auto;html=1;exitX=0.5;exitY=0;exitDx=0;exitDy=0;entryX=0.5;entryY=1;entryDx=0;entryDy=0;entryPerimeter=0;strokeColor=default;align=center;verticalAlign=bottom;fontFamily=Helvetica;fontSize=11;fontColor=default;labelBackgroundColor=default;endArrow=none;dashed=1;" edge="1" parent="1" source="E9D1vIoWVID96YeOAwqb-118" target="E9D1vIoWVID96YeOAwqb-124">
          <mxGeometry relative="1" as="geometry" />
        </mxCell>
        <mxCell id="E9D1vIoWVID96YeOAwqb-126" style="edgeStyle=none;shape=connector;rounded=0;orthogonalLoop=1;jettySize=auto;html=1;exitX=0.5;exitY=0;exitDx=0;exitDy=0;entryX=0.5;entryY=1;entryDx=0;entryDy=0;entryPerimeter=0;dashed=1;strokeColor=default;align=center;verticalAlign=bottom;fontFamily=Helvetica;fontSize=11;fontColor=default;labelBackgroundColor=default;endArrow=none;" edge="1" parent="1" source="E9D1vIoWVID96YeOAwqb-119" target="E9D1vIoWVID96YeOAwqb-123">
          <mxGeometry relative="1" as="geometry" />
        </mxCell>
        <mxCell id="E9D1vIoWVID96YeOAwqb-127" value="&amp;lt;&amp;lt;include&amp;gt;&amp;gt;" style="edgeStyle=none;html=1;endArrow=none;verticalAlign=bottom;dashed=1;labelBackgroundColor=none;rounded=0;strokeColor=default;align=center;fontFamily=Helvetica;fontSize=11;fontColor=default;exitX=0.5;exitY=1;exitDx=0;exitDy=0;entryX=0.5;entryY=0;entryDx=0;entryDy=0;startArrow=open;startFill=0;" edge="1" parent="1" source="E9D1vIoWVID96YeOAwqb-108" target="E9D1vIoWVID96YeOAwqb-105">
          <mxGeometry x="0.0352" y="36" width="160" relative="1" as="geometry">
            <mxPoint x="2523" y="402" as="sourcePoint" />
            <mxPoint x="2512" y="465" as="targetPoint" />
            <mxPoint y="1" as="offset" />
          </mxGeometry>
        </mxCell>
        <mxCell id="E9D1vIoWVID96YeOAwqb-128" value="&amp;lt;&amp;lt;include&amp;gt;&amp;gt;" style="edgeStyle=none;html=1;endArrow=none;verticalAlign=bottom;dashed=1;labelBackgroundColor=none;rounded=0;strokeColor=default;align=center;fontFamily=Helvetica;fontSize=11;fontColor=default;exitX=0.5;exitY=0;exitDx=0;exitDy=0;entryX=0.5;entryY=1;entryDx=0;entryDy=0;startArrow=open;startFill=0;" edge="1" parent="1" source="E9D1vIoWVID96YeOAwqb-107" target="E9D1vIoWVID96YeOAwqb-105">
          <mxGeometry x="-0.1911" y="-24" width="160" relative="1" as="geometry">
            <mxPoint x="2463" y="524" as="sourcePoint" />
            <mxPoint x="2488" y="618" as="targetPoint" />
            <mxPoint as="offset" />
          </mxGeometry>
        </mxCell>
        <mxCell id="E9D1vIoWVID96YeOAwqb-129" value="Аналитик&lt;br&gt;по недвижимости" style="shape=umlActor;verticalLabelPosition=bottom;verticalAlign=top;html=1;outlineConnect=0;" vertex="1" parent="1">
          <mxGeometry x="2982" y="560.44" width="30" height="60" as="geometry" />
        </mxCell>
        <mxCell id="E9D1vIoWVID96YeOAwqb-130" value="&lt;div&gt;Формирование аналитического отчета&lt;/div&gt;" style="ellipse;whiteSpace=wrap;html=1;" vertex="1" parent="1">
          <mxGeometry x="3159" y="602" width="155" height="76" as="geometry" />
        </mxCell>
        <mxCell id="E9D1vIoWVID96YeOAwqb-131" value="&lt;span style=&quot;text-wrap-mode: nowrap;&quot;&gt;Аналитик по недвижимости&lt;br&gt;анализирует рыночную &lt;br&gt;стоимость объекта и&lt;br&gt;формирует отчет об оценке&lt;br&gt;стоимости&amp;nbsp;&lt;/span&gt;" style="shape=note2;boundedLbl=1;whiteSpace=wrap;html=1;size=25;verticalAlign=top;align=center;" vertex="1" parent="1">
          <mxGeometry x="3370" y="436" width="180" height="123" as="geometry" />
        </mxCell>
        <mxCell id="E9D1vIoWVID96YeOAwqb-132" value="Выявление рисков при покупке недвижимости" style="ellipse;whiteSpace=wrap;html=1;" vertex="1" parent="1">
          <mxGeometry x="3220" y="779.44" width="140" height="70" as="geometry" />
        </mxCell>
        <mxCell id="E9D1vIoWVID96YeOAwqb-133" value="Анализ рыночной стоимости" style="ellipse;whiteSpace=wrap;html=1;" vertex="1" parent="1">
          <mxGeometry x="3134" y="444.44000000000005" width="140" height="70" as="geometry" />
        </mxCell>
        <mxCell id="E9D1vIoWVID96YeOAwqb-134" value="" style="edgeStyle=none;html=1;endArrow=none;verticalAlign=bottom;rounded=0;strokeColor=default;align=center;fontFamily=Helvetica;fontSize=11;fontColor=default;labelBackgroundColor=default;entryX=0;entryY=0.5;entryDx=0;entryDy=0;" edge="1" parent="1" source="E9D1vIoWVID96YeOAwqb-129" target="E9D1vIoWVID96YeOAwqb-133">
          <mxGeometry width="160" relative="1" as="geometry">
            <mxPoint x="3337" y="584.44" as="sourcePoint" />
            <mxPoint x="3497" y="584.44" as="targetPoint" />
          </mxGeometry>
        </mxCell>
        <mxCell id="E9D1vIoWVID96YeOAwqb-135" value="" style="edgeStyle=none;html=1;endArrow=none;verticalAlign=bottom;rounded=0;strokeColor=default;align=center;fontFamily=Helvetica;fontSize=11;fontColor=default;labelBackgroundColor=default;entryX=0;entryY=0.5;entryDx=0;entryDy=0;" edge="1" parent="1" source="E9D1vIoWVID96YeOAwqb-129" target="E9D1vIoWVID96YeOAwqb-132">
          <mxGeometry width="160" relative="1" as="geometry">
            <mxPoint x="3337" y="584.44" as="sourcePoint" />
            <mxPoint x="3497" y="584.44" as="targetPoint" />
          </mxGeometry>
        </mxCell>
        <mxCell id="E9D1vIoWVID96YeOAwqb-136" value="" style="edgeStyle=none;html=1;endArrow=none;verticalAlign=bottom;rounded=0;strokeColor=default;align=center;fontFamily=Helvetica;fontSize=11;fontColor=default;labelBackgroundColor=default;entryX=0;entryY=0.5;entryDx=0;entryDy=0;" edge="1" parent="1" source="E9D1vIoWVID96YeOAwqb-129" target="E9D1vIoWVID96YeOAwqb-130">
          <mxGeometry width="160" relative="1" as="geometry">
            <mxPoint x="3022" y="605.44" as="sourcePoint" />
            <mxPoint x="3143" y="642.44" as="targetPoint" />
          </mxGeometry>
        </mxCell>
        <mxCell id="E9D1vIoWVID96YeOAwqb-137" value="&lt;span style=&quot;text-wrap-mode: nowrap;&quot;&gt;Аналитик по недвижимости&lt;br&gt;оценивает ликвидность&lt;br&gt;объекта и&amp;nbsp;&lt;/span&gt;&lt;span style=&quot;color: light-dark(rgb(0, 0, 0), rgb(255, 255, 255)); background-color: transparent;&quot;&gt;прогнозирует инвестиционную привлекательность&lt;/span&gt;" style="shape=note2;boundedLbl=1;whiteSpace=wrap;html=1;size=25;verticalAlign=top;align=center;" vertex="1" parent="1">
          <mxGeometry x="3411" y="771" width="180" height="125" as="geometry" />
        </mxCell>
        <mxCell id="E9D1vIoWVID96YeOAwqb-138" value="&lt;span style=&quot;text-wrap-mode: nowrap;&quot;&gt;Аналитик по недвижимости&lt;br&gt;&lt;/span&gt;составляет детализированный обзор рынка и передает отчет регистратору или юридическому аналитику" style="shape=note2;boundedLbl=1;whiteSpace=wrap;html=1;size=25;verticalAlign=top;align=center;" vertex="1" parent="1">
          <mxGeometry x="3372" y="586.22" width="180" height="107.78" as="geometry" />
        </mxCell>
        <mxCell id="E9D1vIoWVID96YeOAwqb-139" style="edgeStyle=none;shape=connector;rounded=0;orthogonalLoop=1;jettySize=auto;html=1;exitX=1;exitY=0.5;exitDx=0;exitDy=0;entryX=0;entryY=0.5;entryDx=0;entryDy=0;entryPerimeter=0;strokeColor=default;align=center;verticalAlign=bottom;fontFamily=Helvetica;fontSize=11;fontColor=default;labelBackgroundColor=default;endArrow=none;dashed=1;" edge="1" parent="1" source="E9D1vIoWVID96YeOAwqb-130" target="E9D1vIoWVID96YeOAwqb-138">
          <mxGeometry relative="1" as="geometry" />
        </mxCell>
        <mxCell id="E9D1vIoWVID96YeOAwqb-140" style="edgeStyle=none;shape=connector;rounded=0;orthogonalLoop=1;jettySize=auto;html=1;exitX=1;exitY=0.5;exitDx=0;exitDy=0;entryX=0;entryY=0.5;entryDx=0;entryDy=0;entryPerimeter=0;strokeColor=default;align=center;verticalAlign=bottom;fontFamily=Helvetica;fontSize=11;fontColor=default;labelBackgroundColor=default;endArrow=none;dashed=1;" edge="1" parent="1" source="E9D1vIoWVID96YeOAwqb-132" target="E9D1vIoWVID96YeOAwqb-137">
          <mxGeometry relative="1" as="geometry" />
        </mxCell>
        <mxCell id="E9D1vIoWVID96YeOAwqb-141" style="edgeStyle=none;shape=connector;rounded=0;orthogonalLoop=1;jettySize=auto;html=1;exitX=1;exitY=0.5;exitDx=0;exitDy=0;entryX=0;entryY=0.5;entryDx=0;entryDy=0;entryPerimeter=0;strokeColor=default;align=center;verticalAlign=bottom;fontFamily=Helvetica;fontSize=11;fontColor=default;labelBackgroundColor=default;endArrow=none;dashed=1;" edge="1" parent="1" source="E9D1vIoWVID96YeOAwqb-133" target="E9D1vIoWVID96YeOAwqb-131">
          <mxGeometry relative="1" as="geometry" />
        </mxCell>
        <mxCell id="E9D1vIoWVID96YeOAwqb-142" value="Сбор данных о ценах на аналогичные объекты" style="ellipse;whiteSpace=wrap;html=1;" vertex="1" parent="1">
          <mxGeometry x="2966" y="332" width="146" height="73" as="geometry" />
        </mxCell>
        <mxCell id="E9D1vIoWVID96YeOAwqb-143" value="Прогнозирование изменения стоимости" style="ellipse;whiteSpace=wrap;html=1;" vertex="1" parent="1">
          <mxGeometry x="3243" y="332" width="140" height="70" as="geometry" />
        </mxCell>
        <mxCell id="E9D1vIoWVID96YeOAwqb-144" value="&amp;lt;&amp;lt;include&amp;gt;&amp;gt;" style="edgeStyle=none;html=1;endArrow=none;verticalAlign=bottom;dashed=1;labelBackgroundColor=none;rounded=0;strokeColor=default;align=center;fontFamily=Helvetica;fontSize=11;fontColor=default;entryX=0;entryY=0;entryDx=0;entryDy=0;exitX=1;exitY=1;exitDx=0;exitDy=0;startArrow=open;startFill=0;" edge="1" parent="1" source="E9D1vIoWVID96YeOAwqb-142" target="E9D1vIoWVID96YeOAwqb-133">
          <mxGeometry x="0.2349" y="21" width="160" relative="1" as="geometry">
            <mxPoint x="2979" y="357" as="sourcePoint" />
            <mxPoint x="3139" y="357" as="targetPoint" />
            <mxPoint as="offset" />
          </mxGeometry>
        </mxCell>
        <mxCell id="E9D1vIoWVID96YeOAwqb-145" value="&amp;lt;&amp;lt;include&amp;gt;&amp;gt;" style="edgeStyle=none;html=1;endArrow=none;verticalAlign=bottom;dashed=1;labelBackgroundColor=none;rounded=0;strokeColor=default;align=center;fontFamily=Helvetica;fontSize=11;fontColor=default;exitX=0;exitY=1;exitDx=0;exitDy=0;entryX=1;entryY=0;entryDx=0;entryDy=0;startArrow=open;startFill=0;" edge="1" parent="1" source="E9D1vIoWVID96YeOAwqb-143" target="E9D1vIoWVID96YeOAwqb-133">
          <mxGeometry x="0.0352" y="36" width="160" relative="1" as="geometry">
            <mxPoint x="2979" y="357" as="sourcePoint" />
            <mxPoint x="3139" y="357" as="targetPoint" />
            <mxPoint y="1" as="offset" />
          </mxGeometry>
        </mxCell>
        <mxCell id="E9D1vIoWVID96YeOAwqb-146" value="&lt;span style=&quot;text-wrap-mode: nowrap;&quot;&gt;Аналитик по недвижимости &lt;br&gt;прогнозирует &lt;br&gt;изменения цен с учетом &lt;br&gt;многих факторов &lt;br&gt;(конкуренция на рынке, &lt;br&gt;уровень процентных ставок, &lt;br&gt;репутация застройщика &lt;br&gt;и т.д.)&lt;/span&gt;" style="shape=note2;boundedLbl=1;whiteSpace=wrap;html=1;size=25;verticalAlign=top;align=center;" vertex="1" parent="1">
          <mxGeometry x="3227" y="157" width="180" height="152" as="geometry" />
        </mxCell>
        <mxCell id="E9D1vIoWVID96YeOAwqb-147" value="&lt;div style=&quot;text-wrap-mode: nowrap;&quot;&gt;Аналитик по недвижимости&lt;br&gt;&amp;nbsp;выполняет сравнение цен&amp;nbsp;&lt;br&gt;аналогичных объектов &lt;br&gt;недвижимости&lt;/div&gt;" style="shape=note2;boundedLbl=1;whiteSpace=wrap;html=1;size=25;verticalAlign=top;align=center;" vertex="1" parent="1">
          <mxGeometry x="2952" y="203" width="180" height="106" as="geometry" />
        </mxCell>
        <mxCell id="E9D1vIoWVID96YeOAwqb-148" style="edgeStyle=none;shape=connector;rounded=0;orthogonalLoop=1;jettySize=auto;html=1;exitX=0.5;exitY=0;exitDx=0;exitDy=0;entryX=0.5;entryY=1;entryDx=0;entryDy=0;entryPerimeter=0;strokeColor=default;align=center;verticalAlign=bottom;fontFamily=Helvetica;fontSize=11;fontColor=default;labelBackgroundColor=default;endArrow=none;dashed=1;" edge="1" parent="1" source="E9D1vIoWVID96YeOAwqb-142" target="E9D1vIoWVID96YeOAwqb-147">
          <mxGeometry relative="1" as="geometry" />
        </mxCell>
        <mxCell id="E9D1vIoWVID96YeOAwqb-149" style="edgeStyle=none;shape=connector;rounded=0;orthogonalLoop=1;jettySize=auto;html=1;exitX=0.5;exitY=0;exitDx=0;exitDy=0;entryX=0.5;entryY=1;entryDx=0;entryDy=0;entryPerimeter=0;dashed=1;strokeColor=default;align=center;verticalAlign=bottom;fontFamily=Helvetica;fontSize=11;fontColor=default;labelBackgroundColor=default;endArrow=none;" edge="1" parent="1" source="E9D1vIoWVID96YeOAwqb-143" target="E9D1vIoWVID96YeOAwqb-146">
          <mxGeometry relative="1" as="geometry" />
        </mxCell>
        <mxCell id="E9D1vIoWVID96YeOAwqb-150" value="&amp;lt;&amp;lt;include&amp;gt;&amp;gt;" style="edgeStyle=none;html=1;endArrow=none;verticalAlign=bottom;dashed=1;labelBackgroundColor=none;rounded=0;strokeColor=default;align=center;fontFamily=Helvetica;fontSize=11;fontColor=default;exitX=0.5;exitY=1;exitDx=0;exitDy=0;entryX=0.5;entryY=0;entryDx=0;entryDy=0;startArrow=open;startFill=0;" edge="1" parent="1" source="E9D1vIoWVID96YeOAwqb-133" target="E9D1vIoWVID96YeOAwqb-130">
          <mxGeometry x="0.0352" y="36" width="160" relative="1" as="geometry">
            <mxPoint x="3274" y="402" as="sourcePoint" />
            <mxPoint x="3263" y="465" as="targetPoint" />
            <mxPoint y="1" as="offset" />
          </mxGeometry>
        </mxCell>
        <mxCell id="E9D1vIoWVID96YeOAwqb-151" value="&amp;lt;&amp;lt;include&amp;gt;&amp;gt;" style="edgeStyle=none;html=1;endArrow=none;verticalAlign=bottom;dashed=1;labelBackgroundColor=none;rounded=0;strokeColor=default;align=center;fontFamily=Helvetica;fontSize=11;fontColor=default;exitX=0.5;exitY=0;exitDx=0;exitDy=0;entryX=0.5;entryY=1;entryDx=0;entryDy=0;startArrow=open;startFill=0;" edge="1" parent="1" source="E9D1vIoWVID96YeOAwqb-132" target="E9D1vIoWVID96YeOAwqb-130">
          <mxGeometry x="-0.1911" y="-24" width="160" relative="1" as="geometry">
            <mxPoint x="3214" y="524" as="sourcePoint" />
            <mxPoint x="3239" y="618" as="targetPoint" />
            <mxPoint as="offset" />
          </mxGeometry>
        </mxCell>
        <mxCell id="E9D1vIoWVID96YeOAwqb-264" value="Регистратор" style="shape=umlActor;verticalLabelPosition=bottom;verticalAlign=top;html=1;outlineConnect=0;" vertex="1" parent="1">
          <mxGeometry x="2018" y="-104.55999999999995" width="30" height="60" as="geometry" />
        </mxCell>
        <mxCell id="E9D1vIoWVID96YeOAwqb-265" value="&lt;div&gt;Обновление данных об объекте&lt;/div&gt;" style="ellipse;whiteSpace=wrap;html=1;" vertex="1" parent="1">
          <mxGeometry x="2155" y="11.5" width="155" height="76" as="geometry" />
        </mxCell>
        <mxCell id="E9D1vIoWVID96YeOAwqb-266" value="&lt;span style=&quot;text-wrap-mode: nowrap;&quot;&gt;Регистратор вносит объект в&lt;br&gt;систему с учетом выставления&lt;br&gt;правильных настроек&lt;br&gt;для сортировки и фильтрации&lt;br&gt;при поиске&lt;/span&gt;" style="shape=note2;boundedLbl=1;whiteSpace=wrap;html=1;size=25;verticalAlign=top;align=center;" vertex="1" parent="1">
          <mxGeometry x="2469.5" y="-132" width="180" height="123" as="geometry" />
        </mxCell>
        <mxCell id="E9D1vIoWVID96YeOAwqb-268" value="Регистрация объекта недвижимости" style="ellipse;whiteSpace=wrap;html=1;" vertex="1" parent="1">
          <mxGeometry x="2233.5" y="-123.55999999999995" width="140" height="70" as="geometry" />
        </mxCell>
        <mxCell id="E9D1vIoWVID96YeOAwqb-269" value="" style="edgeStyle=none;html=1;endArrow=none;verticalAlign=bottom;rounded=0;strokeColor=default;align=center;fontFamily=Helvetica;fontSize=11;fontColor=default;labelBackgroundColor=default;entryX=0;entryY=0.5;entryDx=0;entryDy=0;" edge="1" parent="1" source="E9D1vIoWVID96YeOAwqb-264" target="E9D1vIoWVID96YeOAwqb-268">
          <mxGeometry width="160" relative="1" as="geometry">
            <mxPoint x="2111.5" y="10.28671532846738" as="sourcePoint" />
            <mxPoint x="2596.5" y="16.440000000000055" as="targetPoint" />
          </mxGeometry>
        </mxCell>
        <mxCell id="E9D1vIoWVID96YeOAwqb-271" value="" style="edgeStyle=none;html=1;endArrow=none;verticalAlign=bottom;rounded=0;strokeColor=default;align=center;fontFamily=Helvetica;fontSize=11;fontColor=default;labelBackgroundColor=default;entryX=0;entryY=0.5;entryDx=0;entryDy=0;" edge="1" parent="1" source="E9D1vIoWVID96YeOAwqb-264" target="E9D1vIoWVID96YeOAwqb-265">
          <mxGeometry width="160" relative="1" as="geometry">
            <mxPoint x="2111.5" y="27.028888888889014" as="sourcePoint" />
            <mxPoint x="2242.5" y="74.44000000000005" as="targetPoint" />
          </mxGeometry>
        </mxCell>
        <mxCell id="E9D1vIoWVID96YeOAwqb-273" value="&lt;span style=&quot;text-wrap-mode: nowrap;&quot;&gt;Регистратор может&lt;br&gt;актуализировать данные об&lt;br&gt;объектах&lt;/span&gt;" style="shape=note2;boundedLbl=1;whiteSpace=wrap;html=1;size=25;verticalAlign=top;align=center;" vertex="1" parent="1">
          <mxGeometry x="2369" y="8" width="180" height="83" as="geometry" />
        </mxCell>
        <mxCell id="E9D1vIoWVID96YeOAwqb-274" style="edgeStyle=none;shape=connector;rounded=0;orthogonalLoop=1;jettySize=auto;html=1;exitX=1;exitY=0.5;exitDx=0;exitDy=0;entryX=0;entryY=0.5;entryDx=0;entryDy=0;entryPerimeter=0;strokeColor=default;align=center;verticalAlign=bottom;fontFamily=Helvetica;fontSize=11;fontColor=default;labelBackgroundColor=default;endArrow=none;dashed=1;" edge="1" parent="1" source="E9D1vIoWVID96YeOAwqb-265" target="E9D1vIoWVID96YeOAwqb-273">
          <mxGeometry relative="1" as="geometry" />
        </mxCell>
        <mxCell id="E9D1vIoWVID96YeOAwqb-276" style="edgeStyle=none;shape=connector;rounded=0;orthogonalLoop=1;jettySize=auto;html=1;exitX=1;exitY=0.5;exitDx=0;exitDy=0;entryX=0;entryY=0.5;entryDx=0;entryDy=0;entryPerimeter=0;strokeColor=default;align=center;verticalAlign=bottom;fontFamily=Helvetica;fontSize=11;fontColor=default;labelBackgroundColor=default;endArrow=none;dashed=1;" edge="1" parent="1" source="E9D1vIoWVID96YeOAwqb-268" target="E9D1vIoWVID96YeOAwqb-266">
          <mxGeometry relative="1" as="geometry" />
        </mxCell>
        <mxCell id="E9D1vIoWVID96YeOAwqb-278" value="Внесение об объекте в БД" style="ellipse;whiteSpace=wrap;html=1;" vertex="1" parent="1">
          <mxGeometry x="2342.5" y="-236" width="140" height="70" as="geometry" />
        </mxCell>
        <mxCell id="E9D1vIoWVID96YeOAwqb-280" value="&amp;lt;&amp;lt;include&amp;gt;&amp;gt;" style="edgeStyle=none;html=1;endArrow=none;verticalAlign=bottom;dashed=1;labelBackgroundColor=none;rounded=0;strokeColor=default;align=center;fontFamily=Helvetica;fontSize=11;fontColor=default;exitX=0;exitY=1;exitDx=0;exitDy=0;entryX=1;entryY=0;entryDx=0;entryDy=0;startArrow=open;startFill=0;" edge="1" parent="1" source="E9D1vIoWVID96YeOAwqb-278" target="E9D1vIoWVID96YeOAwqb-268">
          <mxGeometry x="0.0352" y="36" width="160" relative="1" as="geometry">
            <mxPoint x="2078.5" y="-211" as="sourcePoint" />
            <mxPoint x="2238.5" y="-211" as="targetPoint" />
            <mxPoint y="1" as="offset" />
          </mxGeometry>
        </mxCell>
        <mxCell id="E9D1vIoWVID96YeOAwqb-281" value="Регистратор вносит в систему данные об объекте недвижимости" style="shape=note2;boundedLbl=1;whiteSpace=wrap;html=1;size=25;verticalAlign=top;align=center;" vertex="1" parent="1">
          <mxGeometry x="2322.5" y="-338" width="180" height="79" as="geometry" />
        </mxCell>
        <mxCell id="E9D1vIoWVID96YeOAwqb-284" style="edgeStyle=none;shape=connector;rounded=0;orthogonalLoop=1;jettySize=auto;html=1;exitX=0.5;exitY=0;exitDx=0;exitDy=0;entryX=0.5;entryY=1;entryDx=0;entryDy=0;entryPerimeter=0;dashed=1;strokeColor=default;align=center;verticalAlign=bottom;fontFamily=Helvetica;fontSize=11;fontColor=default;labelBackgroundColor=default;endArrow=none;" edge="1" parent="1" source="E9D1vIoWVID96YeOAwqb-278" target="E9D1vIoWVID96YeOAwqb-281">
          <mxGeometry relative="1" as="geometry" />
        </mxCell>
        <mxCell id="E9D1vIoWVID96YeOAwqb-287" value="Запрос отчетов у аналитиков" style="ellipse;whiteSpace=wrap;html=1;" vertex="1" parent="1">
          <mxGeometry x="2109.5" y="-239" width="146" height="73" as="geometry" />
        </mxCell>
        <mxCell id="E9D1vIoWVID96YeOAwqb-289" value="&lt;div style=&quot;text-wrap-mode: nowrap;&quot;&gt;Регистратор запрашивает, при&lt;br&gt;необходимости, отчеты у &lt;br&gt;аналитика по недвижимости&lt;br&gt;и юридического аналитика&lt;/div&gt;" style="shape=note2;boundedLbl=1;whiteSpace=wrap;html=1;size=25;verticalAlign=top;align=center;" vertex="1" parent="1">
          <mxGeometry x="2092.5" y="-371" width="180" height="106" as="geometry" />
        </mxCell>
        <mxCell id="E9D1vIoWVID96YeOAwqb-290" style="edgeStyle=none;shape=connector;rounded=0;orthogonalLoop=1;jettySize=auto;html=1;exitX=0.5;exitY=0;exitDx=0;exitDy=0;entryX=0.5;entryY=1;entryDx=0;entryDy=0;entryPerimeter=0;strokeColor=default;align=center;verticalAlign=bottom;fontFamily=Helvetica;fontSize=11;fontColor=default;labelBackgroundColor=default;endArrow=none;dashed=1;" edge="1" parent="1" source="E9D1vIoWVID96YeOAwqb-287" target="E9D1vIoWVID96YeOAwqb-289">
          <mxGeometry relative="1" as="geometry" />
        </mxCell>
        <mxCell id="E9D1vIoWVID96YeOAwqb-291" value="&amp;lt;&amp;lt;extend&amp;gt;&amp;gt;" style="edgeStyle=none;html=1;startArrow=open;endArrow=none;startSize=12;verticalAlign=bottom;dashed=1;labelBackgroundColor=none;rounded=0;strokeColor=default;align=center;fontFamily=Helvetica;fontSize=11;fontColor=default;exitX=0;exitY=0;exitDx=0;exitDy=0;entryX=0.5;entryY=1;entryDx=0;entryDy=0;" edge="1" parent="1" source="E9D1vIoWVID96YeOAwqb-268" target="E9D1vIoWVID96YeOAwqb-287">
          <mxGeometry x="-0.224" y="-14" width="160" relative="1" as="geometry">
            <mxPoint x="1884.5" y="-53.559999999999945" as="sourcePoint" />
            <mxPoint x="2044.5" y="-53.559999999999945" as="targetPoint" />
            <mxPoint as="offset" />
          </mxGeometry>
        </mxCell>
      </root>
    </mxGraphModel>
  </diagram>
</mxfile>
